<svg xmlns="http://www.w3.org/2000/svg" viewBox="0 0 664.64 125.82"><defs><style>.cls-1{fill:#df1931;}.cls-2{fill:#00468b;}.cls-3{fill:#fff;}.cls-4{fill:#a30c33;}.cls-5{fill:#a1c1e6;}</style></defs><g id="Layer_2" data-name="Layer 2"><g id="Layer_1-2" data-name="Layer 1"><path class="cls-1" d="M501.69,125.38v-28h19l-1.39,4.38H507.34v6.79h11.75v4.41H507.34v7.95h13.05v4.5Z"/><path class="cls-1" d="M232.68,125.38v-28h5.65v28Z"/><path class="cls-1" d="M271.4,125.38l-13.41-19v19h-5.34v-28h5L270.86,116V97.35h5.34v28Z"/><path class="cls-1" d="M447.2,125.38l-13.42-19v19h-5.34v-28h5L446.65,116V97.35H452v28Z"/><path class="cls-1" d="M339.22,97.35h5.65v16.91c0,3.75-.58,6.31-2.51,8.43s-4.67,3.13-8.84,3.13-6.95-1-8.84-3.13-2.55-4.63-2.55-8.39v-17h5.65v17.22c0,2.43.27,3.53,1.17,4.59a6.76,6.76,0,0,0,9.1,0c.9-1.06,1.17-2.16,1.17-4.59Z"/><path class="cls-1" d="M374.57,125.38l-7.34-10.9h-2.46v10.9h-5.65v-28h9.5a11.91,11.91,0,0,1,7.18,1.9,8.23,8.23,0,0,1-2.69,14.34l8.3,11.79Zm-2.94-22.86a6.09,6.09,0,0,0-3.63-.93h-3.23v8.74H368a6.08,6.08,0,0,0,3.68-.93,4.32,4.32,0,0,0,0-6.88Z"/><path class="cls-1" d="M300,96.91c-7.62,0-10.23,4.46-10.23,8.08,0,4.1,2.65,6.23,5.52,7.33.76.31,4.4,1.58,5.52,2s3.23,1.23,3.23,3.35-1.71,3.44-5.07,3.44a13.5,13.5,0,0,1-8.05-2.68l-2.49,4.22A18.6,18.6,0,0,0,299,125.82c7.76,0,10.67-4.72,10.67-8.74,0-3.13-1.57-5.82-5.83-7.37-.8-.31-4.39-1.59-5.42-2s-3.1-1.19-3.1-3.27,1.62-3.13,4.53-3.13a16.2,16.2,0,0,1,7.79,2.16V98.33A23.5,23.5,0,0,0,300,96.91Z"/><path class="cls-1" d="M478.85,96.91c-7.43,0-14,5.17-14,14.44s5.89,14.47,13.78,14.47a19.45,19.45,0,0,0,10.06-2.71l-2.13-4.62a12.88,12.88,0,0,1-7.53,2.3c-5,0-8.45-3.79-8.45-9.53s3.61-9.49,8.54-9.49a15.5,15.5,0,0,1,8.37,2.23V98.43A22.34,22.34,0,0,0,478.85,96.91Z"/><path class="cls-1" d="M411.27,125.38h6l-10.92-28h-5.11l-10.8,28H396l2-5.73h11.19Zm-11.74-10.19,4.06-11.38,4.11,11.38Z"/><polygon class="cls-2" points="464.89 69.31 462.94 36.77 448.75 69.31 443.93 69.31 429.66 36.77 427.48 69.31 417.52 69.31 421.39 18.35 431.79 18.35 446.84 51.91 461.33 18.35 471.52 18.35 475.39 69.31 464.89 69.31"/><polygon class="cls-2" points="232.64 69.31 232.64 18.35 268.43 18.35 265.78 26.81 243.25 26.81 243.25 40.12 264.12 40.12 264.12 48.54 243.25 48.54 243.25 69.31 232.64 69.31"/><polygon class="cls-2" points="502.98 69.31 502.98 18.35 537.28 18.35 534.64 26.81 513.59 26.81 513.59 38.53 534.36 38.53 534.36 46.95 513.59 46.95 513.59 60.61 536.66 60.61 536.66 69.31 502.98 69.31"/><path class="cls-2" d="M319,69.32,315.19,59H294.66l-3.79,10.31h-10.8l20.23-51h9.92l20.44,51ZM312.46,51l-7.61-19.84L297.34,51Z"/><path class="cls-2" d="M593.34,69.32,579.67,49.73h-4.75V69.32H564.27v-51h18.11c14.15,0,19.14,7.89,19.14,15.37,0,6.77-4.1,12-10.75,14.27L606.3,69.32Zm-12-27.65c6.74,0,9.51-3.41,9.51-7.55s-2.75-7.55-9.43-7.55h-6.46v15.1Z"/><path class="cls-2" d="M381.77,69.32,368.1,49.73h-4.75V69.32H352.7v-51h18.11c14.15,0,19.13,7.89,19.13,15.37,0,6.77-4.09,12-10.74,14.27l15.53,21.33Zm-12-27.65c6.73,0,9.5-3.41,9.5-7.55s-2.74-7.55-9.42-7.55h-6.46v15.1Z"/><path class="cls-2" d="M645.46,70.11c-6.83,0-12.52-1.61-19-5.85l4.7-8c5,3.33,8.71,5,14.34,5s8.66-2.22,8.66-6c0-3.54-3.45-5-5.43-5.71s-6.6-2.43-9.84-3.68c-6.61-2.55-10-7.1-10-13.45,0-6.83,4.82-14.82,18.39-14.82a41.12,41.12,0,0,1,13.76,2.66v9.87A28.33,28.33,0,0,0,647,26c-3.52,0-7.7,1.05-7.7,5.45,0,3.33,3.09,4.71,5,5.46,2.1.83,6.77,2.54,9.9,3.7,6.94,2.57,10.5,7.11,10.5,13.52C664.64,62.07,658.71,70.11,645.46,70.11Z"/><path class="cls-3" d="M97.2.17h0C43.85.17,0,43.77,0,97.37V102H80.14A57.52,57.52,0,0,0,97.2,113.51h0a57.21,57.21,0,0,0,17-11.51H194.4V97.37C194.4,43.77,150.55.17,97.2.17Z"/><path class="cls-4" d="M97.2,108.41c21-10.13,28.44-29.25,29.46-51.72H97.2Z"/><path class="cls-1" d="M97.2,108.41c-21-10.13-28.44-29.25-29.45-51.72H97.2Z"/><path class="cls-5" d="M68.61,9.3A296.54,296.54,0,0,1,90.07,37.93,180.88,180.88,0,0,0,84,56.69a184,184,0,0,0-15.93-11.6A297.21,297.21,0,0,1,68.61,9.3Zm41.81,47.39a180.92,180.92,0,0,1,15.92-11.6A294.78,294.78,0,0,0,125.8,9.3a296.54,296.54,0,0,0-21.46,28.63A183.25,183.25,0,0,1,110.42,56.69Zm21.37,15.53a187.76,187.76,0,0,1,19.7,0,293.49,293.49,0,0,0,20.59-29.26A298.76,298.76,0,0,0,137.9,53.47,184.61,184.61,0,0,1,131.79,72.22Zm-69.17,0a187.14,187.14,0,0,1-6.11-18.75A299.64,299.64,0,0,0,22.34,42.93,292.34,292.34,0,0,0,42.92,72.19,187.77,187.77,0,0,1,62.62,72.22ZM189.77,97.35A294.22,294.22,0,0,0,155.9,85.78,186.26,186.26,0,0,1,140,97.35Zm-135.31,0a186.71,186.71,0,0,1-16-11.57A294.46,294.46,0,0,0,4.64,97.35Z"/><path class="cls-2" d="M189.77,97.35a92.13,92.13,0,0,0-17.69-54.41,294.73,294.73,0,0,1-20.59,29.25c10.47.52,18.16,1.62,18.16,1.62a167,167,0,0,1-13.75,12A294.22,294.22,0,0,1,189.77,97.35Z"/><path class="cls-2" d="M172.08,42.93A92.82,92.82,0,0,0,125.8,9.3a294.78,294.78,0,0,1,.54,35.79c8.77-5.74,15.63-9.36,15.63-9.36s-1.32,7.64-4.07,17.74A298.76,298.76,0,0,1,172.08,42.93Z"/><path class="cls-2" d="M68.61,9.3A296.54,296.54,0,0,1,90.07,37.93c3.69-9.72,7.13-16.75,7.13-16.75s3.45,7,7.14,16.75A296.54,296.54,0,0,1,125.8,9.3a93.1,93.1,0,0,0-57.19,0Z"/><path class="cls-2" d="M22.33,42.94A92.06,92.06,0,0,0,4.64,97.35,294.46,294.46,0,0,1,38.5,85.78a170.22,170.22,0,0,1-13.74-12s7.69-1.1,18.16-1.62A298.8,298.8,0,0,1,22.33,42.94Z"/><path class="cls-2" d="M22.34,42.93A299.64,299.64,0,0,1,56.51,53.47c-2.75-10.1-4.07-17.74-4.07-17.74s6.86,3.62,15.63,9.36A297.21,297.21,0,0,1,68.61,9.3,92.75,92.75,0,0,0,22.34,42.93Z"/><path class="cls-2" d="M660.06,9.17a4.55,4.55,0,0,1-4.59-4.58,4.59,4.59,0,0,1,9.17,0A4.54,4.54,0,0,1,660.06,9.17Zm0-8.55a3.91,3.91,0,0,0-3.95,4,4,4,0,1,0,7.91,0A3.92,3.92,0,0,0,660.06.62Zm1.23,6.6L660,5.09h-.74V7.22h-.83V1.92h1.72A1.6,1.6,0,0,1,662,3.5,1.48,1.48,0,0,1,660.87,5l1.37,2.23Zm-1.21-4.66h-.83V4.45h.83c.64,0,1-.3,1-1S660.72,2.56,660.08,2.56Z"/></g></g></svg>